<svg aria-hidden="true" style="position: absolute; width: 0; height: 0; overflow: hidden;" version="1.1" xmlns="http://www.w3.org/2000/svg" xmlns:xlink="http://www.w3.org/1999/xlink">
<defs>
<symbol id="icon-menu-right" viewBox="0 0 32 32">
<path d="M29.333 24.006c0 0.733-0.594 1.327-1.327 1.327h-10.679c-0.733 0-1.327-0.594-1.327-1.327s0.594-1.327 1.327-1.327h10.679c0.733 0 1.327 0.594 1.327 1.327z"></path>
<path d="M29.333 16c0 0.733-0.594 1.327-1.327 1.327h-24.013c-0.733 0-1.327-0.594-1.327-1.327s0.594-1.327 1.327-1.327h24.013c0.733 0 1.327 0.594 1.327 1.327z"></path>
<path d="M28.006 9.321c0.733 0 1.327-0.594 1.327-1.327s-0.594-1.327-1.327-1.327h-16.013c-0.733 0-1.327 0.594-1.327 1.327s0.594 1.327 1.327 1.327h16.013z"></path>
</symbol></defs></svg>