<svg aria-hidden="true" style="position: absolute; width: 0; height: 0; overflow: hidden;" version="1.1" xmlns="http://www.w3.org/2000/svg" xmlns:xlink="http://www.w3.org/1999/xlink">
<defs>
<symbol id="icon-menu-right" viewBox="0 0 32 32">
<path d="M29.333 24.006c0 0.733-0.594 1.327-1.327 1.327h-10.679c-0.733 0-1.327-0.594-1.327-1.327s0.594-1.327 1.327-1.327h10.679c0.733 0 1.327 0.594 1.327 1.327z"></path>
<path d="M29.333 16c0 0.733-0.594 1.327-1.327 1.327h-24.013c-0.733 0-1.327-0.594-1.327-1.327s0.594-1.327 1.327-1.327h24.013c0.733 0 1.327 0.594 1.327 1.327z"></path>
<path d="M28.006 9.321c0.733 0 1.327-0.594 1.327-1.327s-0.594-1.327-1.327-1.327h-16.013c-0.733 0-1.327 0.594-1.327 1.327s0.594 1.327 1.327 1.327h16.013z"></path>
</symbol>

<symbol id="icon-instagram" viewBox="0 0 32 32">
<path fill="none" stroke="#000"  stroke-linejoin="round" stroke-linecap="round" stroke-miterlimit="4" stroke-width="2" d="M12 4h8c4.418 0 8 3.582 8 8v8c0 4.418-3.582 8-8 8h-8c-4.418 0-8-3.582-8-8v-8c0-4.418 3.582-8 8-8z"></path>
<path fill="none" stroke="#000"  stroke-linejoin="round" stroke-linecap="round" stroke-miterlimit="4" stroke-width="2" d="M21.333 16c0 2.946-2.388 5.333-5.333 5.333s-5.333-2.388-5.333-5.333c0-2.946 2.388-5.333 5.333-5.333s5.333 2.388 5.333 5.333z"></path>
<path d="M24 9.187c0 0.736-0.597 1.333-1.333 1.333s-1.333-0.597-1.333-1.333c0-0.736 0.597-1.333 1.333-1.333s1.333 0.597 1.333 1.333z"></path>
</symbol>

<symbol id="icon-gmail" viewBox="0 0 32 32">
<path d="M31.45 10.467l-2.061-1.17v-1.722c0-0.6-0.486-1.086-1.086-1.086h-3.861l-7.907-4.489c-0.332-0.189-0.74-0.189-1.072 0l-7.907 4.489h-3.861c-0.6 0-1.086 0.486-1.086 1.086v1.722l-2.061 1.17c-0.34 0.193-0.55 0.56-0.55 0.95v17.638c0 0.6 0.486 1.086 1.086 1.086h29.829c0.6 0 1.086-0.486 1.086-1.086v-17.645c0-0.391-0.21-0.751-0.55-0.944zM2.171 15.777h0.444l8.72 5.183-9.165 6.063v-11.246zM27.218 8.66v5.424l-8.23 5.747h-5.301l-8.909-5.295c0.002-0.029 0.004-0.057 0.004-0.086 0 0 0 0 0 0v-5.79h22.436zM13.695 22.002h5.271l8.494 5.968h-22.786l9.021-5.968zM21.212 20.927l7.374-5.15h1.243v11.204l-8.617-6.054zM29.829 12.043v1.563h-0.44v-1.812l0.44 0.25zM16 4.193l4.045 2.296h-8.090l4.045-2.296zM2.611 11.793v1.812h-0.44v-1.563l0.44-0.25z"></path>
</symbol>


<symbol id="icon-location" viewBox="0 0 32 32">
<path d="M16 2.571c6.154 0 11.143 4.989 11.143 11.143 0 4.708-3.308 9.839-9.84 15.449-0.75 0.644-1.857 0.644-2.609-0.003l-0.432-0.374c-6.243-5.462-9.405-10.469-9.405-15.072 0-6.154 4.989-11.143 11.143-11.143zM16 4.286c-5.207 0-9.429 4.221-9.429 9.429 0 4.002 2.912 8.614 8.817 13.779l0.426 0.369c0.107 0.092 0.265 0.092 0.372 0 6.19-5.316 9.242-10.051 9.242-14.149 0-5.207-4.221-9.429-9.429-9.429zM16 9.429c2.367 0 4.286 1.919 4.286 4.286s-1.919 4.286-4.286 4.286c-2.367 0-4.286-1.919-4.286-4.286s1.919-4.286 4.286-4.286zM16 11.143c-1.42 0-2.571 1.151-2.571 2.571s1.151 2.571 2.571 2.571c1.42 0 2.571-1.151 2.571-2.571s-1.151-2.571-2.571-2.571z"></path>
</symbol>

<symbol id="icon-smartphone" viewBox="0 0 32 32">
<path d="M14.43 1.362c0 0.052-0.042 0.094-0.094 0.094s-0.094-0.042-0.094-0.094c0-0.052 0.042-0.094 0.094-0.094s0.094 0.042 0.094 0.094z"></path>
<path d="M14.706 1.362c0 0.052-0.042 0.094-0.094 0.094s-0.094-0.042-0.094-0.094c0-0.052 0.042-0.094 0.094-0.094s0.094 0.042 0.094 0.094z"></path>
<path d="M14.981 1.362c0 0.052-0.042 0.094-0.094 0.094s-0.094-0.042-0.094-0.094c0-0.052 0.042-0.094 0.094-0.094s0.094 0.042 0.094 0.094z"></path>
<path d="M15.256 1.362c0 0.052-0.042 0.094-0.094 0.094s-0.094-0.042-0.094-0.094c0-0.052 0.042-0.094 0.094-0.094s0.094 0.042 0.094 0.094z"></path>
<path d="M15.532 1.362c0 0.052-0.042 0.094-0.094 0.094s-0.094-0.042-0.094-0.094c0-0.052 0.042-0.094 0.094-0.094s0.094 0.042 0.094 0.094z"></path>
<path d="M15.808 1.362c0 0.052-0.042 0.094-0.094 0.094s-0.094-0.042-0.094-0.094c0-0.052 0.042-0.094 0.094-0.094s0.094 0.042 0.094 0.094z"></path>
<path d="M16.084 1.362c0 0.052-0.042 0.094-0.094 0.094s-0.094-0.042-0.094-0.094c0-0.052 0.042-0.094 0.094-0.094s0.094 0.042 0.094 0.094z"></path>
<path d="M16.359 1.362c0 0.052-0.042 0.094-0.094 0.094s-0.094-0.042-0.094-0.094c0-0.052 0.042-0.094 0.094-0.094s0.094 0.042 0.094 0.094z"></path>
<path d="M16.634 1.362c0 0.052-0.042 0.094-0.094 0.094s-0.094-0.042-0.094-0.094c0-0.052 0.042-0.094 0.094-0.094s0.094 0.042 0.094 0.094z"></path>
<path d="M16.912 1.362c0 0.052-0.042 0.094-0.094 0.094s-0.094-0.042-0.094-0.094c0-0.052 0.042-0.094 0.094-0.094s0.094 0.042 0.094 0.094z"></path>
<path d="M17.187 1.362c0 0.052-0.042 0.094-0.094 0.094s-0.094-0.042-0.094-0.094c0-0.052 0.042-0.094 0.094-0.094s0.094 0.042 0.094 0.094z"></path>
<path d="M17.462 1.362c0 0.052-0.042 0.094-0.094 0.094s-0.094-0.042-0.094-0.094c0-0.052 0.042-0.094 0.094-0.094s0.094 0.042 0.094 0.094z"></path>
<path d="M17.738 1.362c0 0.052-0.042 0.094-0.094 0.094s-0.094-0.042-0.094-0.094c0-0.052 0.042-0.094 0.094-0.094s0.094 0.042 0.094 0.094z"></path>
<path d="M18.014 1.362c0 0.052-0.042 0.094-0.094 0.094s-0.094-0.042-0.094-0.094c0-0.052 0.042-0.094 0.094-0.094s0.094 0.042 0.094 0.094z"></path>
<path d="M23.092 0h-14.184c-1.146 0-2.075 0.929-2.075 2.075v27.849c0 1.146 0.929 2.075 2.075 2.075h14.184c1.146 0 2.075-0.929 2.075-2.075v-27.849c0.001-1.146-0.928-2.075-2.075-2.075zM21.641 1.232c0.126 0 0.229 0.103 0.229 0.229s-0.103 0.229-0.229 0.229c-0.127 0-0.229-0.103-0.229-0.229s0.102-0.229 0.229-0.229zM13.545 1.035h5.126c0.182 0 0.328 0.147 0.328 0.327s-0.146 0.327-0.328 0.327h-5.126c-0.182 0-0.328-0.147-0.328-0.327s0.146-0.327 0.328-0.327zM11.454 30.635h-0.505c-0.034 0-0.061-0.028-0.061-0.061s0.027-0.061 0.061-0.061h0.505c0.034 0 0.061 0.028 0.061 0.061s-0.028 0.061-0.061 0.061zM11.454 30.389h-0.505c-0.034 0-0.061-0.027-0.061-0.061s0.027-0.061 0.061-0.061h0.505c0.034 0 0.061 0.028 0.061 0.061s-0.028 0.061-0.061 0.061zM11.879 30.549c0 0.073-0.058 0.132-0.131 0.132s-0.132-0.059-0.132-0.132v-0.433h-0.83v0.433c0 0.073-0.058 0.132-0.131 0.132s-0.131-0.059-0.131-0.132v-0.564c0-0.072 0.059-0.131 0.131-0.131h1.093c0.072 0 0.131 0.059 0.131 0.131v0.564zM17.643 30.508c0 0.287-0.233 0.519-0.519 0.519h-2.27c-0.287 0-0.519-0.232-0.519-0.519v-0.454c0-0.287 0.232-0.519 0.519-0.519h2.27c0.287 0 0.519 0.232 0.519 0.519v0.454zM21.032 30.705h-0.412c-0.072 0-0.131-0.059-0.131-0.132s0.058-0.131 0.131-0.131h0.412c0.089 0 0.161-0.069 0.161-0.154s-0.072-0.153-0.161-0.153h-0.347c-0.013 0.018-0.029 0.027-0.058 0.029-0.007 0.004-0.020-0.002-0.029-0.006l-0.214-0.090c-0.026-0.011-0.043-0.037-0.043-0.065s0.017-0.054 0.043-0.065l0.214-0.090c0.026-0.011 0.057-0.005 0.077 0.015 0.003 0.003 0.006 0.006 0.008 0.009h0.35c0.233 0 0.423 0.187 0.423 0.416s-0.189 0.416-0.423 0.416zM23.784 28.887h-15.74v-25.687h15.74v25.687z"></path>
</symbol>


<symbol id="icon-telegram" viewBox="0 0 32 32">
<path d="M26.070 3.996c-0.336 0.016-0.652 0.113-0.934 0.223h-0.004c-0.285 0.113-1.641 0.684-3.699 1.547-2.059 0.867-4.73 1.992-7.383 3.109-5.297 2.23-10.504 4.426-10.504 4.426l0.063-0.023c0 0-0.359 0.117-0.734 0.375-0.191 0.125-0.402 0.297-0.586 0.566s-0.332 0.684-0.277 1.109c0.090 0.723 0.559 1.156 0.895 1.395 0.34 0.242 0.664 0.355 0.664 0.355h0.008l4.883 1.645c0.219 0.703 1.488 4.875 1.793 5.836 0.18 0.574 0.355 0.934 0.574 1.207 0.105 0.141 0.23 0.258 0.379 0.352 0.059 0.035 0.121 0.063 0.184 0.086 0.020 0.012 0.039 0.016 0.063 0.020l-0.051-0.012c0.016 0.004 0.027 0.016 0.039 0.020 0.039 0.012 0.066 0.016 0.117 0.023 0.773 0.234 1.395-0.246 1.395-0.246l0.035-0.027 2.883-2.625 4.832 3.707 0.109 0.047c1.008 0.441 2.027 0.195 2.566-0.238 0.543-0.438 0.754-0.996 0.754-0.996l0.035-0.090 3.734-19.129c0.105-0.473 0.133-0.914 0.016-1.344s-0.418-0.832-0.781-1.047c-0.367-0.219-0.73-0.285-1.066-0.27zM25.969 6.047c-0.004 0.063 0.008 0.055-0.020 0.176v0.012l-3.699 18.93c-0.016 0.027-0.043 0.086-0.117 0.145-0.078 0.063-0.141 0.102-0.465-0.027l-5.91-4.531-3.57 3.254 0.75-4.789c0 0 9.258-8.629 9.656-9s0.266-0.449 0.266-0.449c0.027-0.453-0.602-0.133-0.602-0.133l-12.176 7.543-0.004-0.020-5.836-1.969c-0.004 0-0.012-0.004-0.016-0.004 0.004 0 0.031-0.012 0.031-0.012l0.031-0.016 0.031-0.012c0 0 5.211-2.195 10.508-4.426 2.652-1.117 5.324-2.242 7.379-3.109 2.055-0.863 3.574-1.496 3.66-1.531 0.082-0.031 0.043-0.031 0.102-0.031z"></path>
</symbol>

<symbol id="icon-close" viewBox="0 0 32 32">
<path   d="M32 3.223l-3.223-3.223-12.777 12.777-12.777-12.777-3.223 3.223 12.777 12.777-12.777 12.777 3.223 3.223 12.777-12.777 12.777 12.777 3.223-3.223-12.777-12.777 12.777-12.777z"></path>
</symbol>
</defs></svg>